<svg width="190" height="46" viewBox="0 0 190 46" fill="none" xmlns="http://www.w3.org/2000/svg">
<rect x="0.769775" y="0.901497" width="68.1114" height="44.197" rx="22.0985" fill="#0D7A48"/>
<g filter="url(#filter0_di_1_28)">
<path d="M17.4877 37.2751V18.4256H23.1628V37.2751H17.4877ZM20.359 16.4326C19.2555 16.4326 18.3547 16.1173 17.6566 15.4867C16.9585 14.8561 16.6094 14.0679 16.6094 13.1221C16.6094 12.1537 16.9585 11.3542 17.6566 10.7236C18.3547 10.0705 19.2555 9.744 20.359 9.744C21.44 9.744 22.3296 10.0705 23.0277 10.7236C23.7258 11.3542 24.0749 12.1537 24.0749 13.1221C24.0749 14.0679 23.7258 14.8561 23.0277 15.4867C22.3296 16.1173 21.44 16.4326 20.359 16.4326Z" fill="white"/>
</g>
<g filter="url(#filter1_di_1_28)">
<path d="M39.1627 36.7728C37.1618 36.7728 35.3169 36.435 33.6279 35.7594C31.9648 35.0578 30.5226 34.0834 29.3013 32.8361C28.0801 31.5628 27.1316 30.0817 26.456 28.3927C25.8064 26.7036 25.4815 24.8457 25.4815 22.8189C25.4815 20.7401 25.8194 18.8562 26.495 17.1671C27.1706 15.4521 28.119 13.984 29.3403 12.7627C30.5876 11.5154 32.0428 10.5539 33.7058 9.87833C35.3948 9.20272 37.2138 8.86491 39.1627 8.86491C41.2415 8.86491 43.1254 9.2287 44.8144 9.95628C46.5034 10.6839 47.9456 11.7233 49.1409 13.0745C50.3362 14.3997 51.2197 15.9848 51.7914 17.8298L45.3991 19.8176C44.8534 18.0506 44.0349 16.7903 42.9435 16.0368C41.8781 15.2572 40.6048 14.8675 39.1237 14.8675C37.7465 14.8675 36.5382 15.1923 35.4988 15.8419C34.4594 16.4915 33.6408 17.414 33.0432 18.6093C32.4715 19.8046 32.1857 21.2078 32.1857 22.8189C32.1857 24.43 32.4715 25.8331 33.0432 27.0285C33.6149 28.2238 34.4204 29.1592 35.4598 29.8348C36.4992 30.4845 37.7075 30.8093 39.0847 30.8093C40.6698 30.8093 42.008 30.3935 43.0994 29.562C44.1908 28.7305 45.0223 27.4832 45.594 25.8201L52.0642 27.3403C51.5445 29.2892 50.661 30.9782 49.4138 32.4074C48.1925 33.8105 46.6983 34.8889 44.9313 35.6425C43.1904 36.3961 41.2675 36.7728 39.1627 36.7728Z" fill="white"/>
</g>
<path d="M79.4456 19V17.2611H80.9228V7.74371H79.4456V6.00478H84.5315V7.74371H83.0544V17.2611H84.5315V19H79.4456ZM87.1557 19V8.69731H89.2873V10.8476C89.4493 10.4113 89.7049 10.0249 90.0539 9.68832C90.4029 9.33928 90.8018 9.06504 91.2506 8.8656C91.7118 8.66615 92.173 8.56643 92.6342 8.56643C93.4196 8.56643 94.1052 8.74094 94.691 9.08997C95.2894 9.42654 95.7506 9.91893 96.0747 10.5671C96.4113 11.2153 96.5795 12.0007 96.5795 12.9231V19H94.4667V13.4279C94.4667 12.493 94.2298 11.7576 93.7561 11.2216C93.2824 10.6856 92.6592 10.4175 91.8863 10.4175C91.3877 10.4175 90.9389 10.5547 90.54 10.8289C90.1536 11.1031 89.8482 11.4833 89.6238 11.9695C89.3995 12.4432 89.2873 12.9917 89.2873 13.6149V19H87.1557ZM100.182 8.69731L103.099 17.0928L106.016 8.69731H108.278L104.351 19H101.808L97.9005 8.69731H100.182ZM114.676 19.1309C113.841 19.1309 113.08 19 112.395 18.7382C111.722 18.4765 111.142 18.1087 110.656 17.635C110.182 17.1613 109.814 16.6129 109.553 15.9896C109.303 15.3539 109.179 14.662 109.179 13.9141C109.179 13.1038 109.322 12.3746 109.609 11.7264C109.908 11.0657 110.307 10.4986 110.805 10.0249C111.317 9.5512 111.902 9.1897 112.563 8.94039C113.224 8.69108 113.916 8.56643 114.639 8.56643C115.287 8.56643 115.879 8.65368 116.415 8.8282C116.951 9.00272 117.412 9.24579 117.799 9.55743C118.197 9.86906 118.503 10.2306 118.715 10.6419C118.927 11.0533 119.033 11.4958 119.033 11.9695C119.033 12.6302 118.839 13.1786 118.453 13.6149C118.067 14.0512 117.562 14.394 116.938 14.6433C116.315 14.8926 115.63 15.0609 114.882 15.1482C114.134 15.2354 113.392 15.2604 112.657 15.223C112.532 15.2105 112.376 15.2043 112.189 15.2043C112.002 15.1918 111.834 15.1856 111.684 15.1856C111.547 15.1731 111.472 15.1669 111.46 15.1669C111.547 15.5782 111.74 15.9522 112.04 16.2888C112.351 16.6129 112.738 16.8684 113.199 17.0554C113.66 17.2424 114.152 17.3359 114.676 17.3359C115.1 17.3359 115.517 17.2611 115.929 17.1115C116.353 16.9619 116.739 16.7562 117.088 16.4944C117.437 16.2327 117.73 15.9335 117.967 15.5969L119.556 16.7375C119.145 17.286 118.677 17.741 118.154 18.1025C117.643 18.4515 117.094 18.7133 116.508 18.8878C115.923 19.0499 115.312 19.1309 114.676 19.1309ZM112.844 13.5214C113.305 13.5214 113.772 13.5027 114.246 13.4653C114.72 13.4155 115.156 13.3345 115.555 13.2223C115.966 13.0976 116.297 12.9293 116.546 12.7174C116.795 12.5055 116.92 12.2313 116.92 11.8947C116.92 11.608 116.826 11.3525 116.639 11.1281C116.465 10.8912 116.215 10.7042 115.891 10.5671C115.567 10.43 115.187 10.3614 114.751 10.3614C114.103 10.3614 113.523 10.5048 113.012 10.7915C112.501 11.0782 112.096 11.4584 111.796 11.9321C111.51 12.4058 111.354 12.9169 111.329 13.4653C111.504 13.4778 111.722 13.4903 111.983 13.5027C112.245 13.5152 112.532 13.5214 112.844 13.5214ZM125.037 19.1309C124.314 19.1309 123.666 19.0062 123.093 18.7569C122.519 18.4951 122.046 18.1461 121.672 17.7098C121.298 17.2735 121.042 16.7998 120.905 16.2888L122.943 15.84C123.068 16.3012 123.317 16.669 123.691 16.9432C124.078 17.205 124.514 17.3359 125 17.3359C125.623 17.3359 126.091 17.2237 126.402 16.9993C126.726 16.7625 126.889 16.4695 126.889 16.1205C126.889 15.7839 126.745 15.5221 126.458 15.3352C126.172 15.1482 125.798 14.9924 125.337 14.8677C124.888 14.7431 124.408 14.6122 123.897 14.475C123.386 14.3379 122.9 14.1572 122.438 13.9328C121.99 13.7084 121.622 13.4093 121.335 13.0353C121.048 12.6489 120.905 12.144 120.905 11.5207C120.905 10.9723 121.067 10.4736 121.391 10.0249C121.715 9.57613 122.17 9.22086 122.756 8.95909C123.355 8.69731 124.059 8.56643 124.869 8.56643C125.567 8.56643 126.184 8.67862 126.72 8.90299C127.256 9.12737 127.699 9.44524 128.048 9.8566C128.397 10.2555 128.634 10.7354 128.758 11.2964L126.72 11.8199C126.596 11.3462 126.377 10.9847 126.066 10.7354C125.754 10.4861 125.33 10.3614 124.794 10.3614C124.221 10.3614 123.785 10.4674 123.485 10.6793C123.199 10.8788 123.055 11.153 123.055 11.502C123.055 11.8386 123.199 12.1066 123.485 12.3061C123.772 12.493 124.14 12.6551 124.589 12.7922C125.037 12.9169 125.511 13.0478 126.01 13.1849C126.521 13.322 127.001 13.5027 127.449 13.7271C127.898 13.939 128.266 14.2382 128.553 14.6246C128.839 14.9986 128.983 15.491 128.983 16.1018C128.983 16.6378 128.821 17.1364 128.497 17.5976C128.185 18.0589 127.73 18.4328 127.132 18.7195C126.546 18.9938 125.848 19.1309 125.037 19.1309ZM134.749 19.1309C133.964 19.1309 133.309 18.8629 132.786 18.3269C132.262 17.7909 132 17.0616 132 16.1392V10.4362H130.411V8.69731H136.656V10.4362H134.151V16.2701C134.151 16.6191 134.238 16.8684 134.412 17.018C134.599 17.1676 134.799 17.2424 135.011 17.2424C135.198 17.2424 135.366 17.2112 135.516 17.1489C135.665 17.0866 135.809 16.9868 135.946 16.8497L137.049 18.1773C136.7 18.5138 136.345 18.7569 135.983 18.9065C135.622 19.0561 135.21 19.1309 134.749 19.1309ZM131.178 9.50133V8.69731C131.439 8.69731 131.639 8.62252 131.776 8.47294C131.926 8.32335 132 8.11767 132 7.8559V6.13567H134.151V7.50063C134.151 7.67515 134.107 7.84966 134.02 8.02418C133.933 8.18623 133.808 8.32958 133.646 8.45424C133.496 8.56643 133.328 8.64745 133.141 8.69731L131.178 9.50133ZM139.014 19V8.69731H141.145V10.8476C141.307 10.4113 141.557 10.0249 141.893 9.68832C142.242 9.33928 142.635 9.06504 143.071 8.8656C143.52 8.66615 143.963 8.56643 144.399 8.56643C145.371 8.56643 146.188 8.82197 146.848 9.33305C147.509 9.84413 147.92 10.5235 148.082 11.3712C148.232 10.8351 148.481 10.3614 148.83 9.95009C149.179 9.52627 149.597 9.1897 150.083 8.94039C150.582 8.69108 151.118 8.56643 151.691 8.56643C152.9 8.56643 153.873 8.94039 154.608 9.68832C155.356 10.4238 155.73 11.5145 155.73 12.9605V19H153.617V13.4653C153.617 12.518 153.38 11.7763 152.907 11.2403C152.433 10.6918 151.81 10.4175 151.037 10.4175C150.251 10.4175 149.622 10.7229 149.148 11.3338C148.675 11.9446 148.438 12.7174 148.438 13.6523V19H146.325V13.4653C146.325 12.518 146.088 11.7763 145.614 11.2403C145.141 10.6918 144.517 10.4175 143.744 10.4175C143.221 10.4175 142.766 10.5609 142.38 10.8476C141.993 11.1218 141.688 11.502 141.463 11.9882C141.251 12.4743 141.145 13.0291 141.145 13.6523V19H139.014ZM163.229 19.1309C162.394 19.1309 161.634 19 160.948 18.7382C160.275 18.4765 159.695 18.1087 159.209 17.635C158.735 17.1613 158.368 16.6129 158.106 15.9896C157.857 15.3539 157.732 14.662 157.732 13.9141C157.732 13.1038 157.875 12.3746 158.162 11.7264C158.461 11.0657 158.86 10.4986 159.359 10.0249C159.87 9.5512 160.456 9.1897 161.116 8.94039C161.777 8.69108 162.469 8.56643 163.192 8.56643C163.84 8.56643 164.432 8.65368 164.968 8.8282C165.504 9.00272 165.965 9.24579 166.352 9.55743C166.751 9.86906 167.056 10.2306 167.268 10.6419C167.48 11.0533 167.586 11.4958 167.586 11.9695C167.586 12.6302 167.393 13.1786 167.006 13.6149C166.62 14.0512 166.115 14.394 165.492 14.6433C164.868 14.8926 164.183 15.0609 163.435 15.1482C162.687 15.2354 161.945 15.2604 161.21 15.223C161.085 15.2105 160.929 15.2043 160.742 15.2043C160.555 15.1918 160.387 15.1856 160.237 15.1856C160.1 15.1731 160.026 15.1669 160.013 15.1669C160.1 15.5782 160.294 15.9522 160.593 16.2888C160.904 16.6129 161.291 16.8684 161.752 17.0554C162.213 17.2424 162.706 17.3359 163.229 17.3359C163.653 17.3359 164.071 17.2611 164.482 17.1115C164.906 16.9619 165.292 16.7562 165.641 16.4944C165.99 16.2327 166.283 15.9335 166.52 15.5969L168.109 16.7375C167.698 17.286 167.231 17.741 166.707 18.1025C166.196 18.4515 165.647 18.7133 165.062 18.8878C164.476 19.0499 163.865 19.1309 163.229 19.1309ZM161.397 13.5214C161.858 13.5214 162.325 13.5027 162.799 13.4653C163.273 13.4155 163.709 13.3345 164.108 13.2223C164.519 13.0976 164.85 12.9293 165.099 12.7174C165.348 12.5055 165.473 12.2313 165.473 11.8947C165.473 11.608 165.379 11.3525 165.192 11.1281C165.018 10.8912 164.769 10.7042 164.445 10.5671C164.12 10.43 163.74 10.3614 163.304 10.3614C162.656 10.3614 162.076 10.5048 161.565 10.7915C161.054 11.0782 160.649 11.4584 160.35 11.9321C160.063 12.4058 159.907 12.9169 159.882 13.4653C160.057 13.4778 160.275 13.4903 160.537 13.5027C160.798 13.5152 161.085 13.5214 161.397 13.5214ZM170.019 19V8.69731H172.151V10.8476C172.313 10.4113 172.568 10.0249 172.917 9.68832C173.266 9.33928 173.665 9.06504 174.114 8.8656C174.575 8.66615 175.037 8.56643 175.498 8.56643C176.283 8.56643 176.969 8.74094 177.555 9.08997C178.153 9.42654 178.614 9.91893 178.938 10.5671C179.275 11.2153 179.443 12.0007 179.443 12.9231V19H177.33V13.4279C177.33 12.493 177.093 11.7576 176.62 11.2216C176.146 10.6856 175.523 10.4175 174.75 10.4175C174.251 10.4175 173.802 10.5547 173.404 10.8289C173.017 11.1031 172.712 11.4833 172.487 11.9695C172.263 12.4432 172.151 12.9917 172.151 13.6149V19H170.019ZM185.621 19.1309C184.836 19.1309 184.181 18.8629 183.658 18.3269C183.134 17.7909 182.873 17.0616 182.873 16.1392V10.4362H181.283V8.69731H187.528V10.4362H185.023V16.2701C185.023 16.6191 185.11 16.8684 185.285 17.018C185.472 17.1676 185.671 17.2424 185.883 17.2424C186.07 17.2424 186.238 17.2112 186.388 17.1489C186.537 17.0866 186.681 16.9868 186.818 16.8497L187.921 18.1773C187.572 18.5138 187.217 18.7569 186.855 18.9065C186.494 19.0561 186.082 19.1309 185.621 19.1309ZM182.05 9.50133V8.69731C182.312 8.69731 182.511 8.62252 182.648 8.47294C182.798 8.32335 182.873 8.11767 182.873 7.8559V6.13567H185.023V7.50063C185.023 7.67515 184.979 7.84966 184.892 8.02418C184.805 8.18623 184.68 8.32958 184.518 8.45424C184.368 8.56643 184.2 8.64745 184.013 8.69731L182.05 9.50133ZM85.429 40.1309C84.4692 40.1309 83.5841 39.9688 82.7739 39.6447C81.9761 39.3082 81.2843 38.8407 80.6984 38.2424C80.1125 37.6316 79.6575 36.921 79.3334 36.1108C79.0218 35.3005 78.866 34.4093 78.866 33.4369C78.866 32.4397 79.028 31.536 79.3521 30.7257C79.6762 29.903 80.1312 29.1987 80.7171 28.6128C81.3154 28.0145 82.0135 27.5533 82.8113 27.2292C83.6215 26.9051 84.4941 26.743 85.429 26.743C86.4263 26.743 87.33 26.9175 88.1403 27.2666C88.9505 27.6156 89.6423 28.1142 90.2157 28.7624C90.7892 29.3981 91.213 30.1585 91.4872 31.0436L88.4207 31.9972C88.1589 31.1495 87.7663 30.545 87.2427 30.1835C86.7317 29.8095 86.1208 29.6225 85.4103 29.6225C84.7497 29.6225 84.17 29.7783 83.6714 30.09C83.1728 30.4016 82.7801 30.8441 82.4934 31.4175C82.2192 31.991 82.082 32.6641 82.082 33.4369C82.082 34.2098 82.2192 34.8829 82.4934 35.4563C82.7676 36.0298 83.1541 36.4785 83.6527 36.8026C84.1513 37.1143 84.731 37.2701 85.3916 37.2701C86.152 37.2701 86.794 37.0706 87.3175 36.6717C87.8411 36.2728 88.24 35.6745 88.5142 34.8767L91.6181 35.6059C91.3688 36.5408 90.945 37.3511 90.3466 38.0367C89.7608 38.7098 89.044 39.2271 88.1963 39.5886C87.3612 39.9501 86.4387 40.1309 85.429 40.1309ZM97.3202 40.1309C96.4102 40.1309 95.6124 39.894 94.9268 39.4204C94.2537 38.9467 93.7301 38.3109 93.3562 37.5131C92.9947 36.7029 92.8139 35.7929 92.8139 34.7832C92.8139 33.786 92.9947 32.8822 93.3562 32.072C93.7301 31.2617 94.2537 30.6198 94.9268 30.1461C95.6124 29.6724 96.4102 29.4355 97.3202 29.4355C98.118 29.4355 98.8098 29.6537 99.3957 30.09C99.994 30.5138 100.412 31.1121 100.648 31.885V29.5664H103.808V40H102.256C101.758 40 101.365 39.8629 101.079 39.5886C100.792 39.3019 100.648 38.9093 100.648 38.4107V37.7001C100.412 38.4605 99.994 39.0589 99.3957 39.4951C98.8098 39.919 98.118 40.1309 97.3202 40.1309ZM98.3486 37.3636C98.7599 37.3636 99.1401 37.2638 99.4892 37.0644C99.8382 36.8649 100.119 36.572 100.331 36.1856C100.542 35.7991 100.648 35.3317 100.648 34.7832C100.648 34.2472 100.542 33.786 100.331 33.3995C100.119 33.0131 99.8382 32.714 99.4892 32.502C99.1401 32.2901 98.7599 32.1842 98.3486 32.1842C97.9247 32.1842 97.5383 32.2901 97.1893 32.502C96.8403 32.714 96.5598 33.0131 96.3479 33.3995C96.1484 33.786 96.0487 34.2472 96.0487 34.7832C96.0487 35.3317 96.1484 35.7991 96.3479 36.1856C96.5598 36.572 96.8403 36.8649 97.1893 37.0644C97.5508 37.2638 97.9372 37.3636 98.3486 37.3636ZM106.14 36.7652V26.1634H109.3V36.6156C109.3 36.8899 109.381 37.0956 109.543 37.2327C109.718 37.3698 109.917 37.4384 110.142 37.4384C110.291 37.4384 110.435 37.4134 110.572 37.3636L111.077 39.7943C110.578 40.0187 110.017 40.1309 109.394 40.1309C108.87 40.1309 108.359 40.0249 107.861 39.813C107.362 39.6011 106.951 39.2521 106.626 38.7659C106.302 38.2673 106.14 37.6004 106.14 36.7652ZM117.113 40.1309C116.078 40.1309 115.168 39.9127 114.383 39.4765C113.598 39.0277 112.98 38.4044 112.532 37.6066C112.095 36.8088 111.877 35.8677 111.877 34.7832C111.877 33.7112 112.095 32.7763 112.532 31.9785C112.968 31.1807 113.579 30.5574 114.364 30.1087C115.149 29.6599 116.066 29.4355 117.113 29.4355C117.611 29.4355 118.098 29.4854 118.571 29.5851C119.057 29.6848 119.512 29.8594 119.936 30.1087C120.372 30.3455 120.759 30.6759 121.095 31.0997C121.432 31.511 121.7 32.0346 121.899 32.6703L118.852 33.6426C118.715 33.1565 118.496 32.7825 118.197 32.5207C117.898 32.259 117.518 32.1281 117.057 32.1281C116.67 32.1281 116.327 32.2278 116.028 32.4272C115.742 32.6267 115.517 32.9259 115.355 33.3248C115.193 33.7112 115.112 34.1973 115.112 34.7832C115.112 35.3442 115.193 35.8303 115.355 36.2417C115.517 36.6406 115.742 36.946 116.028 37.1579C116.327 37.3698 116.67 37.4757 117.057 37.4757C117.618 37.4757 118.041 37.3075 118.328 36.9709C118.627 36.6343 118.821 36.223 118.908 35.7368L122.049 36.4847C121.887 37.108 121.594 37.7001 121.17 38.2611C120.759 38.8096 120.217 39.2583 119.544 39.6073C118.87 39.9564 118.06 40.1309 117.113 40.1309ZM130.848 38.4107V29.5664H134.008V40H132.438C131.939 40 131.546 39.8629 131.26 39.5886C130.985 39.3019 130.848 38.9093 130.848 38.4107ZM127.651 40.1309C126.803 40.1309 126.08 39.9439 125.482 39.5699C124.896 39.196 124.447 38.6724 124.136 37.9993C123.824 37.3262 123.668 36.5408 123.668 35.6433V29.5664H126.809V35.1759C126.809 35.8989 126.99 36.4598 127.352 36.8587C127.726 37.2576 128.218 37.4571 128.829 37.4571C129.253 37.4571 129.614 37.3511 129.913 37.1392C130.212 36.9273 130.443 36.6343 130.605 36.2604C130.767 35.8864 130.848 35.4626 130.848 34.9889L131.278 35.5311C131.241 36.6032 131.054 37.4757 130.717 38.1489C130.393 38.822 129.963 39.3206 129.427 39.6447C128.891 39.9688 128.299 40.1309 127.651 40.1309ZM136.342 36.7652V26.1634H139.502V36.6156C139.502 36.8899 139.583 37.0956 139.745 37.2327C139.92 37.3698 140.119 37.4384 140.344 37.4384C140.493 37.4384 140.637 37.4134 140.774 37.3636L141.279 39.7943C140.78 40.0187 140.219 40.1309 139.596 40.1309C139.072 40.1309 138.561 40.0249 138.062 39.813C137.564 39.6011 137.152 39.2521 136.828 38.7659C136.504 38.2673 136.342 37.6004 136.342 36.7652ZM146.585 40.1309C145.675 40.1309 144.878 39.894 144.192 39.4204C143.519 38.9467 142.995 38.3109 142.621 37.5131C142.26 36.7029 142.079 35.7929 142.079 34.7832C142.079 33.786 142.26 32.8822 142.621 32.072C142.995 31.2617 143.519 30.6198 144.192 30.1461C144.878 29.6724 145.675 29.4355 146.585 29.4355C147.383 29.4355 148.075 29.6537 148.661 30.09C149.259 30.5138 149.677 31.1121 149.914 31.885V29.5664H153.074V40H151.522C151.023 40 150.63 39.8629 150.344 39.5886C150.057 39.3019 149.914 38.9093 149.914 38.4107V37.7001C149.677 38.4605 149.259 39.0589 148.661 39.4951C148.075 39.919 147.383 40.1309 146.585 40.1309ZM147.614 37.3636C148.025 37.3636 148.405 37.2638 148.754 37.0644C149.103 36.8649 149.384 36.572 149.596 36.1856C149.808 35.7991 149.914 35.3317 149.914 34.7832C149.914 34.2472 149.808 33.786 149.596 33.3995C149.384 33.0131 149.103 32.714 148.754 32.502C148.405 32.2901 148.025 32.1842 147.614 32.1842C147.19 32.1842 146.804 32.2901 146.455 32.502C146.106 32.714 145.825 33.0131 145.613 33.3995C145.414 33.786 145.314 34.2472 145.314 34.7832C145.314 35.3317 145.414 35.7991 145.613 36.1856C145.825 36.572 146.106 36.8649 146.455 37.0644C146.816 37.2638 147.202 37.3636 147.614 37.3636ZM159.856 40.1309C158.709 40.1309 157.83 39.8193 157.219 39.196C156.608 38.5602 156.303 37.644 156.303 36.4473V32.1281H154.639V29.5664H161.539V32.1281H159.463V36.4847C159.463 36.7839 159.557 37.0208 159.744 37.1953C159.943 37.3573 160.18 37.4384 160.454 37.4384C160.579 37.4384 160.691 37.4259 160.791 37.401C160.903 37.3636 161.009 37.3137 161.109 37.2514L161.894 39.5699C161.595 39.732 161.277 39.8691 160.94 39.9813C160.616 40.081 160.255 40.1309 159.856 40.1309ZM155.462 30.4078V29.5664C155.736 29.5664 155.96 29.4792 156.135 29.3047C156.309 29.1301 156.397 28.9058 156.397 28.6315V27.0235H159.463V28.1454C159.463 28.3199 159.419 28.5131 159.332 28.725C159.245 28.9245 159.108 29.1052 158.921 29.2673C158.746 29.4168 158.534 29.5166 158.285 29.5664L155.462 30.4078ZM168.244 40.1309C167.222 40.1309 166.306 39.919 165.495 39.4951C164.685 39.0589 164.043 38.4356 163.57 37.6253C163.108 36.8151 162.878 35.8677 162.878 34.7832C162.878 33.6863 163.115 32.7389 163.588 31.9411C164.062 31.1433 164.704 30.5263 165.514 30.09C166.337 29.6537 167.259 29.4355 168.281 29.4355C169.316 29.4355 170.239 29.6537 171.049 30.09C171.871 30.5138 172.52 31.1308 172.993 31.9411C173.467 32.7389 173.704 33.6863 173.704 34.7832C173.704 35.8677 173.461 36.8151 172.975 37.6253C172.489 38.4356 171.834 39.0589 171.011 39.4951C170.189 39.919 169.266 40.1309 168.244 40.1309ZM168.244 37.401C168.63 37.401 168.992 37.3075 169.329 37.1205C169.678 36.921 169.958 36.6281 170.17 36.2417C170.382 35.8552 170.488 35.3691 170.488 34.7832C170.488 34.1849 170.382 33.6987 170.17 33.3248C169.958 32.9383 169.684 32.6516 169.347 32.4646C169.023 32.2777 168.668 32.1842 168.281 32.1842C167.895 32.1842 167.534 32.2777 167.197 32.4646C166.873 32.6516 166.605 32.9383 166.393 33.3248C166.193 33.6987 166.094 34.1849 166.094 34.7832C166.094 35.3691 166.187 35.8552 166.374 36.2417C166.574 36.6281 166.835 36.921 167.16 37.1205C167.496 37.3075 167.858 37.401 168.244 37.401ZM175.4 40V29.5664H178.56V40H175.4ZM178.074 35.5124L178.56 32.0907C178.785 31.2804 179.177 30.6447 179.738 30.1835C180.299 29.7098 181.016 29.4729 181.888 29.4729V32.7638C181.751 32.7389 181.62 32.7202 181.496 32.7077C181.371 32.6953 181.246 32.689 181.122 32.689C180.661 32.689 180.237 32.8012 179.85 33.0256C179.464 33.2375 179.152 33.5554 178.915 33.9792C178.679 34.3906 178.56 34.9016 178.56 35.5124H178.074Z" fill="#0D7A48"/>
<defs>
<filter id="filter0_di_1_28" x="7.81777" y="6.14941" width="18.1194" height="38.185" filterUnits="userSpaceOnUse" color-interpolation-filters="sRGB">
<feFlood flood-opacity="0" result="BackgroundImageFix"/>
<feColorMatrix in="SourceAlpha" type="matrix" values="0 0 0 0 0 0 0 0 0 0 0 0 0 0 0 0 0 0 127 0" result="hardAlpha"/>
<feOffset dx="-3.46467" dy="1.73234"/>
<feGaussianBlur stdDeviation="2.66347"/>
<feComposite in2="hardAlpha" operator="out"/>
<feColorMatrix type="matrix" values="0 0 0 0 0 0 0 0 0 0 0 0 0 0 0 0 0 0 0.08 0"/>
<feBlend mode="normal" in2="BackgroundImageFix" result="effect1_dropShadow_1_28"/>
<feBlend mode="normal" in="SourceGraphic" in2="effect1_dropShadow_1_28" result="shape"/>
<feColorMatrix in="SourceAlpha" type="matrix" values="0 0 0 0 0 0 0 0 0 0 0 0 0 0 0 0 0 0 127 0" result="hardAlpha"/>
<feOffset dy="1.73234"/>
<feGaussianBlur stdDeviation="0.649626"/>
<feComposite in2="hardAlpha" operator="arithmetic" k2="-1" k3="1"/>
<feColorMatrix type="matrix" values="0 0 0 0 0 0 0 0 0 0 0 0 0 0 0 0 0 0 0.08 0"/>
<feBlend mode="normal" in2="shape" result="effect2_innerShadow_1_28"/>
</filter>
<filter id="filter1_di_1_28" x="16.69" y="5.27031" width="37.2366" height="38.5618" filterUnits="userSpaceOnUse" color-interpolation-filters="sRGB">
<feFlood flood-opacity="0" result="BackgroundImageFix"/>
<feColorMatrix in="SourceAlpha" type="matrix" values="0 0 0 0 0 0 0 0 0 0 0 0 0 0 0 0 0 0 127 0" result="hardAlpha"/>
<feOffset dx="-3.46467" dy="1.73234"/>
<feGaussianBlur stdDeviation="2.66347"/>
<feComposite in2="hardAlpha" operator="out"/>
<feColorMatrix type="matrix" values="0 0 0 0 0 0 0 0 0 0 0 0 0 0 0 0 0 0 0.08 0"/>
<feBlend mode="normal" in2="BackgroundImageFix" result="effect1_dropShadow_1_28"/>
<feBlend mode="normal" in="SourceGraphic" in2="effect1_dropShadow_1_28" result="shape"/>
<feColorMatrix in="SourceAlpha" type="matrix" values="0 0 0 0 0 0 0 0 0 0 0 0 0 0 0 0 0 0 127 0" result="hardAlpha"/>
<feOffset dy="1.73234"/>
<feGaussianBlur stdDeviation="0.649626"/>
<feComposite in2="hardAlpha" operator="arithmetic" k2="-1" k3="1"/>
<feColorMatrix type="matrix" values="0 0 0 0 0 0 0 0 0 0 0 0 0 0 0 0 0 0 0.08 0"/>
<feBlend mode="normal" in2="shape" result="effect2_innerShadow_1_28"/>
</filter>
</defs>
</svg>
