<svg width="14" height="20" viewBox="0 0 14 20" fill="none" xmlns="http://www.w3.org/2000/svg">
<path d="M0.0795898 7.58154V5.53809H12.6567V7.58154H0.0795898ZM9.9541 19.75L8.1084 16.23C7.35254 14.7886 6.45605 13.7822 5.41895 13.2109C4.39062 12.6396 3.07666 12.3232 1.47705 12.2617L0.0795898 12.209V10.1128H3.52051C5.08496 10.1128 6.20996 9.79199 6.89551 9.15039C7.58105 8.50879 7.92383 7.6167 7.92383 6.47412C7.92383 5.35791 7.57227 4.47021 6.86914 3.81104C6.1748 3.14307 5.11572 2.80908 3.69189 2.80908H0.0795898V0.554688H12.7754V2.66406H9.30811L8.31934 2.51904L8.49072 2.61133C9.14111 2.875 9.67725 3.36279 10.0991 4.07471C10.5298 4.78662 10.7451 5.59082 10.7451 6.4873C10.7451 7.99902 10.3584 9.13721 9.58496 9.90186C8.81152 10.6577 7.65137 11.1147 6.10449 11.2729C6.93066 11.4663 7.76562 11.9233 8.60938 12.644C9.46191 13.356 10.2178 14.3359 10.877 15.584L13.0522 19.75H9.9541Z" fill="#222222"/>
</svg>
