<svg width="13" height="20" viewBox="0 0 13 20" fill="none" xmlns="http://www.w3.org/2000/svg">
<path d="M0.4062 13.543V13.3746H2.73012V13.5093C2.73012 14.4224 3.02201 15.0998 3.6058 15.5414C4.18958 15.9829 5.00539 16.2037 6.05321 16.2037C7.09354 16.2037 7.89064 15.9829 8.44448 15.5414C8.99833 15.0998 9.27526 14.516 9.27526 13.79C9.27526 13.1239 9.03576 12.5364 8.55675 12.0274C8.08523 11.5185 7.02618 11.0507 5.37961 10.6241C3.69561 10.1975 2.49436 9.59124 1.77585 8.80537C1.05735 8.0195 0.698093 7.02782 0.698093 5.83031C0.698093 4.59538 1.16587 3.58872 2.10143 2.81034C3.03698 2.02447 4.31682 1.63154 5.94094 1.63154C7.58003 1.63154 8.88232 2.05441 9.84782 2.90015C10.8208 3.74589 11.3073 4.80494 11.3073 6.07729V6.23447H8.98336V6.11097C8.98336 5.31762 8.72889 4.68519 8.21995 4.21367C7.71101 3.73466 6.95134 3.49516 5.94094 3.49516C4.94551 3.49516 4.20829 3.6935 3.72929 4.09018C3.25777 4.47937 3.02201 5.03696 3.02201 5.76295C3.02201 6.36919 3.25777 6.90807 3.72929 7.37959C4.20081 7.8511 5.25611 8.30017 6.89521 8.72678C8.54927 9.1534 9.74678 9.77835 10.4877 10.6016C11.2287 11.4174 11.5992 12.4503 11.5992 13.7002C11.5992 15.01 11.0977 16.0653 10.0948 16.8661C9.09937 17.6595 7.75217 18.0561 6.05321 18.0561C4.35424 18.0561 2.98833 17.6595 1.95548 16.8661C0.922626 16.0728 0.4062 14.9651 0.4062 13.543ZM5.07649 19.8299V9.54633H6.89521V17.1243L7.05238 17.2366V19.8299H5.07649ZM5.18876 9.54633V2.47354L5.03158 2.36127V0.11594H6.99625V9.54633H5.18876Z" fill="#222222"/>
</svg>
