<svg width="15" height="20" viewBox="0 0 15 20" fill="none" xmlns="http://www.w3.org/2000/svg">
<path d="M2.37048 13.543V13.3746H4.6944V13.5093C4.6944 14.4224 4.98629 15.0998 5.57008 15.5414C6.15386 15.9829 6.96967 16.2037 8.01749 16.2037C9.05782 16.2037 9.85492 15.9829 10.4088 15.5414C10.9626 15.0998 11.2395 14.516 11.2395 13.79C11.2395 13.1239 11 12.5364 10.521 12.0274C10.0495 11.5185 8.99046 11.0507 7.34389 10.6241C5.65989 10.1975 4.45864 9.59127 3.74013 8.8054C3.02163 8.01953 2.66237 7.02785 2.66237 5.83034C2.66237 4.59541 3.13015 3.58875 4.0657 2.81037C5.00126 2.0245 6.2811 1.63157 7.90522 1.63157C9.54431 1.63157 10.8466 2.05444 11.8121 2.90018C12.7851 3.74592 13.2716 4.80497 13.2716 6.07732V6.2345H10.9476V6.111C10.9476 5.31765 10.6932 4.68522 10.1842 4.2137C9.67529 3.73469 8.91562 3.49519 7.90522 3.49519C6.90979 3.49519 6.17257 3.69353 5.69357 4.09021C5.22205 4.4794 4.98629 5.03699 4.98629 5.76298C4.98629 6.36922 5.22205 6.9081 5.69357 7.37962C6.16509 7.85113 7.22039 8.3002 8.85949 8.72681C10.5136 9.15343 11.7111 9.77838 12.452 10.6016C13.193 11.4174 13.5635 12.4503 13.5635 13.7002C13.5635 15.01 13.062 16.0653 12.0591 16.8661C11.0637 17.6595 9.71645 18.0561 8.01749 18.0561C6.31852 18.0561 4.95261 17.6595 3.91976 16.8661C2.88691 16.0728 2.37048 14.9651 2.37048 13.543ZM7.04077 19.8299V9.54636H8.85949V17.1243L9.01666 17.2366V19.8299H7.04077ZM7.15303 9.54636V2.47357L6.99586 2.3613V0.115967H8.96053V9.54636H7.15303Z" fill="#222222"/>
</svg>
