<svg width="13" height="20" viewBox="0 0 13 20" fill="none" xmlns="http://www.w3.org/2000/svg">
<path d="M1.37048 13.543V13.3746H3.6944V13.5093C3.6944 14.4224 3.98629 15.0998 4.57008 15.5414C5.15386 15.9829 5.96967 16.2037 7.01749 16.2037C8.05782 16.2037 8.85492 15.9829 9.40876 15.5414C9.96261 15.0998 10.2395 14.516 10.2395 13.79C10.2395 13.1239 10 12.5364 9.52103 12.0274C9.04951 11.5185 7.99046 11.0507 6.34389 10.6241C4.65989 10.1975 3.45864 9.59124 2.74013 8.80537C2.02163 8.0195 1.66237 7.02782 1.66237 5.83031C1.66237 4.59538 2.13015 3.58872 3.0657 2.81034C4.00126 2.02447 5.2811 1.63154 6.90522 1.63154C8.54431 1.63154 9.8466 2.05441 10.8121 2.90015C11.7851 3.74589 12.2716 4.80494 12.2716 6.07729V6.23447H9.94764V6.11097C9.94764 5.31762 9.69317 4.68519 9.18423 4.21367C8.67529 3.73466 7.91562 3.49516 6.90522 3.49516C5.90979 3.49516 5.17257 3.6935 4.69357 4.09018C4.22205 4.47937 3.98629 5.03696 3.98629 5.76295C3.98629 6.36919 4.22205 6.90807 4.69357 7.37959C5.16509 7.8511 6.22039 8.30017 7.85949 8.72678C9.51355 9.1534 10.7111 9.77835 11.452 10.6016C12.193 11.4174 12.5635 12.4503 12.5635 13.7002C12.5635 15.01 12.062 16.0653 11.0591 16.8661C10.0637 17.6595 8.71645 18.0561 7.01749 18.0561C5.31852 18.0561 3.95261 17.6595 2.91976 16.8661C1.88691 16.0728 1.37048 14.9651 1.37048 13.543ZM6.04077 19.8299V9.54633H7.85949V17.1243L8.01666 17.2366V19.8299H6.04077ZM6.15303 9.54633V2.47354L5.99586 2.36127V0.11594H7.96053V9.54633H6.15303Z" fill="#222222"/>
</svg>
